<svg width="254" height="63" viewBox="0 0 254 63" fill="none" xmlns="http://www.w3.org/2000/svg">
<path d="M53.4043 50.3663V18.8085H70.3389V22.3643H57.2268V32.7651H68.3832V36.2764H57.2268V46.8105H70.7389V50.3663H53.4043Z" fill="black"/>
<path d="M44.3548 50.3663V36.5876H28.7092V50.3663H24.8867V18.8085H28.7092V33.0317H44.3548V18.8085H48.1773V50.3663H44.3548Z" fill="black"/>
<path d="M8.5632 50.3663V22.3643H0.207031V18.8085H20.7419V22.3643H12.3857V50.3663H8.5632Z" fill="black"/>
<path d="M232.846 50.3667V18.8088H243.113C249.914 18.8088 254.003 23.0758 254.003 29.0763C254.003 35.1211 249.914 39.3881 243.113 39.3881H236.668V50.3667H232.846ZM236.668 35.7879H242.802C247.247 35.7879 250.091 33.521 250.091 29.0763C250.091 24.6315 247.247 22.3647 242.802 22.3647H236.668V35.7879Z" fill="black"/>
<path d="M212.03 50.8111C203.452 50.8111 195.984 44.2773 195.984 34.5877C195.984 24.8981 203.452 18.3643 212.03 18.3643C220.564 18.3643 228.031 24.8981 228.031 34.5877C228.031 44.2773 220.564 50.8111 212.03 50.8111ZM199.896 34.5877C199.896 42.2327 205.63 47.1219 212.03 47.1219C218.386 47.1219 224.12 42.2327 224.12 34.5877C224.12 26.9427 218.386 22.0534 212.03 22.0534C205.63 22.0534 199.896 26.9427 199.896 34.5877Z" fill="black"/>
<path d="M176.044 50.8111C167.465 50.8111 159.998 44.2773 159.998 34.5877C159.998 24.8981 167.465 18.3643 176.044 18.3643C184.578 18.3643 192.045 24.8981 192.045 34.5877C192.045 44.2773 184.578 50.8111 176.044 50.8111ZM163.909 34.5877C163.909 42.2327 169.643 47.1219 176.044 47.1219C182.4 47.1219 188.133 42.2327 188.133 34.5877C188.133 26.9427 182.4 22.0534 176.044 22.0534C169.643 22.0534 163.909 26.9427 163.909 34.5877Z" fill="black"/>
<path d="M140.955 50.3667V18.8088H144.778V46.8109H158.601V50.3667H140.955Z" fill="black"/>
<path fill-rule="evenodd" clip-rule="evenodd" d="M129.35 0.958008L79.6695 50.6382L129.35 50.6382L129.35 0.958008ZM118.022 28.3054L107.017 39.3105L118.022 39.3105L118.022 28.3054Z" fill="black"/>
<path d="M129.35 50.6382L129.35 62.0423L117.945 62.0423L129.35 50.6382Z" fill="#C7141A"/>
</svg>
